<svg width="100" height="30" viewBox="0 0 100 30" fill="none" xmlns="http://www.w3.org/2000/svg">
<g clip-path="url(#clip0)">
<rect width="100" height="30" fill="white"/>
<path d="M73.9941 25H70.5029V12.5C70.5029 12.2559 70.4541 12.028 70.3564 11.8164C70.2669 11.6048 70.1408 11.4217 69.978 11.2671C69.8234 11.1043 69.6403 10.9782 69.4287 10.8887C69.2171 10.7992 68.9893 10.7544 68.7451 10.7544C68.501 10.7544 68.2731 10.7992 68.0615 10.8887C67.8499 10.9782 67.6628 11.1043 67.5 11.2671C67.3454 11.4217 67.2233 11.6048 67.1338 11.8164C67.0443 12.028 66.9995 12.2559 66.9995 12.5V25H63.4961V12.5C63.4961 12.2559 63.4513 12.028 63.3618 11.8164C63.2723 11.6048 63.1462 11.4217 62.9834 11.2671C62.8288 11.1043 62.6457 10.9782 62.4341 10.8887C62.2225 10.7992 61.9946 10.7544 61.7505 10.7544C61.5063 10.7544 61.2785 10.7992 61.0669 10.8887C60.8553 10.9782 60.6681 11.1043 60.5054 11.2671C60.3507 11.4217 60.2287 11.6048 60.1392 11.8164C60.0496 12.028 60.0049 12.2559 60.0049 12.5V25H56.5015V12.5C56.5015 11.7757 56.6357 11.0962 56.9043 10.4614C57.181 9.81852 57.5553 9.26107 58.0273 8.78906C58.5075 8.30892 59.0649 7.93457 59.6997 7.66602C60.3426 7.38932 61.0262 7.25098 61.7505 7.25098C62.4015 7.25098 63.0282 7.36898 63.6304 7.60498C64.2326 7.83285 64.7738 8.1665 65.2539 8.60596C65.734 8.1665 66.2712 7.83285 66.8652 7.60498C67.4674 7.36898 68.0941 7.25098 68.7451 7.25098C69.4694 7.25098 70.1489 7.38932 70.7837 7.66602C71.4266 7.93457 71.984 8.30892 72.4561 8.78906C72.9362 9.26107 73.3105 9.81852 73.5791 10.4614C73.8558 11.0962 73.9941 11.7757 73.9941 12.5V25ZM80.6348 25H77.1313V7.49512H80.6348V25ZM82.8687 12.7441C82.8687 12.0199 83.007 11.3403 83.2837 10.7056C83.5604 10.0708 83.9347 9.51742 84.4067 9.04541C84.8869 8.56527 85.4443 8.18685 86.0791 7.91016C86.7139 7.63346 87.3934 7.49512 88.1177 7.49512H96.1499V10.9985H88.1177C87.8735 10.9985 87.6457 11.0433 87.4341 11.1328C87.2225 11.2223 87.0353 11.3485 86.8726 11.5112C86.7179 11.6659 86.5959 11.849 86.5063 12.0605C86.4168 12.2721 86.3721 12.5 86.3721 12.7441C86.3721 12.9883 86.4168 13.2202 86.5063 13.4399C86.5959 13.6515 86.7179 13.8387 86.8726 14.0015C87.0353 14.1561 87.2225 14.2782 87.4341 14.3677C87.6457 14.4572 87.8735 14.502 88.1177 14.502H91.6211C92.3454 14.502 93.0249 14.6403 93.6597 14.917C94.3026 15.1855 94.86 15.5599 95.332 16.04C95.8122 16.512 96.1865 17.0695 96.4551 17.7124C96.7318 18.3472 96.8701 19.0267 96.8701 19.751C96.8701 20.4753 96.7318 21.1548 96.4551 21.7896C96.1865 22.4243 95.8122 22.9818 95.332 23.4619C94.86 23.9339 94.3026 24.3083 93.6597 24.585C93.0249 24.8617 92.3454 25 91.6211 25H83.8452V21.4966H91.6211C91.8652 21.4966 92.0931 21.4518 92.3047 21.3623C92.5163 21.2728 92.6994 21.1507 92.854 20.9961C93.0168 20.8333 93.1429 20.6462 93.2324 20.4346C93.3219 20.223 93.3667 19.9951 93.3667 19.751C93.3667 19.5068 93.3219 19.279 93.2324 19.0674C93.1429 18.8558 93.0168 18.6727 92.854 18.5181C92.6994 18.3553 92.5163 18.2292 92.3047 18.1396C92.0931 18.0501 91.8652 18.0054 91.6211 18.0054H88.1177C87.3934 18.0054 86.7139 17.867 86.0791 17.5903C85.4443 17.3136 84.8869 16.9393 84.4067 16.4673C83.9347 15.9871 83.5604 15.4297 83.2837 14.7949C83.007 14.152 82.8687 13.4684 82.8687 12.7441Z" fill="black"/>
<path d="M7.12695 10.9985V18.0054H10.6304C11.1105 18.0054 11.5622 17.9159 11.9854 17.7368C12.4085 17.5496 12.7788 17.2974 13.0962 16.98C13.4136 16.6626 13.6618 16.2923 13.8408 15.8691C14.028 15.4378 14.1216 14.9821 14.1216 14.502C14.1216 14.0218 14.028 13.5701 13.8408 13.147C13.6618 12.7157 13.4136 12.3413 13.0962 12.0239C12.7788 11.7065 12.4085 11.4583 11.9854 11.2793C11.5622 11.0921 11.1105 10.9985 10.6304 10.9985H7.12695ZM7.12695 25H3.62354V7.49512H10.6304C11.2733 7.49512 11.8918 7.58057 12.4858 7.75146C13.0799 7.91423 13.6333 8.15023 14.146 8.45947C14.6668 8.76058 15.1388 9.12679 15.562 9.55811C15.9933 9.98128 16.3595 10.4533 16.6606 10.9741C16.9699 11.495 17.2059 12.0524 17.3687 12.6465C17.5396 13.2406 17.625 13.859 17.625 14.502C17.625 15.4622 17.4419 16.3696 17.0757 17.2241C16.7095 18.0705 16.209 18.811 15.5742 19.4458C14.9395 20.0806 14.1948 20.5811 13.3403 20.9473C12.494 21.3135 11.5907 21.4966 10.6304 21.4966H7.12695V25ZM23.1914 10.9985V18.0054H26.6948C27.175 18.0054 27.6266 17.9159 28.0498 17.7368C28.473 17.5496 28.8433 17.2974 29.1606 16.98C29.478 16.6626 29.7262 16.2923 29.9053 15.8691C30.0924 15.4378 30.186 14.9821 30.186 14.502C30.186 14.0218 30.0924 13.5701 29.9053 13.147C29.7262 12.7157 29.478 12.3413 29.1606 12.0239C28.8433 11.7065 28.473 11.4583 28.0498 11.2793C27.6266 11.0921 27.175 10.9985 26.6948 10.9985H23.1914ZM23.1914 25H19.688V7.49512H26.6948C27.3377 7.49512 27.9562 7.58057 28.5503 7.75146C29.1444 7.91423 29.6978 8.15023 30.2104 8.45947C30.7313 8.76058 31.2033 9.12679 31.6265 9.55811C32.0578 9.98128 32.424 10.4533 32.7251 10.9741C33.0343 11.495 33.2703 12.0524 33.4331 12.6465C33.604 13.2406 33.6895 13.859 33.6895 14.502C33.6895 15.1042 33.6121 15.6901 33.4575 16.2598C33.311 16.8294 33.0954 17.3706 32.8105 17.8833C32.5339 18.396 32.1921 18.868 31.7852 19.2993C31.3783 19.7306 30.9225 20.105 30.418 20.4224L32.3589 25H28.6357L27.1099 21.4722L23.1914 21.4966V25ZM53.1475 16.3208C53.1475 17.1509 53.0376 17.9525 52.8179 18.7256C52.6063 19.4906 52.3052 20.2108 51.9146 20.8862C51.5239 21.5535 51.0519 22.1639 50.4985 22.7173C49.9451 23.2707 49.3348 23.7467 48.6675 24.1455C48.0002 24.5361 47.2799 24.8372 46.5068 25.0488C45.7337 25.2686 44.9321 25.3784 44.1021 25.3784C43.272 25.3784 42.4704 25.2686 41.6973 25.0488C40.9323 24.8372 40.2121 24.5361 39.5366 24.1455C38.8693 23.7467 38.259 23.2707 37.7056 22.7173C37.1522 22.1639 36.6761 21.5535 36.2773 20.8862C35.8867 20.2108 35.5815 19.4906 35.3618 18.7256C35.1502 17.9525 35.0444 17.1509 35.0444 16.3208C35.0444 15.4907 35.1502 14.6891 35.3618 13.916C35.5815 13.1429 35.8867 12.4227 36.2773 11.7554C36.6761 11.0881 37.1522 10.4777 37.7056 9.92432C38.259 9.37093 38.8693 8.89893 39.5366 8.5083C40.2121 8.11768 40.9323 7.81657 41.6973 7.60498C42.4704 7.38525 43.272 7.27539 44.1021 7.27539C44.9321 7.27539 45.7337 7.38525 46.5068 7.60498C47.2799 7.81657 48.0002 8.11768 48.6675 8.5083C49.3348 8.89893 49.9451 9.37093 50.4985 9.92432C51.0519 10.4777 51.5239 11.0881 51.9146 11.7554C52.3052 12.4227 52.6063 13.1429 52.8179 13.916C53.0376 14.6891 53.1475 15.4907 53.1475 16.3208ZM49.6685 16.3208C49.6685 15.5558 49.522 14.8356 49.229 14.1602C48.936 13.4766 48.5373 12.8866 48.0327 12.3901C47.5363 11.8856 46.9463 11.4868 46.2627 11.1938C45.5872 10.9009 44.867 10.7544 44.1021 10.7544C43.3289 10.7544 42.6047 10.9009 41.9292 11.1938C41.2537 11.4868 40.6637 11.8856 40.1592 12.3901C39.6546 12.8866 39.2559 13.4766 38.9629 14.1602C38.6699 14.8356 38.5234 15.5558 38.5234 16.3208C38.5234 17.0858 38.6699 17.806 38.9629 18.4814C39.2559 19.1488 39.6546 19.7347 40.1592 20.2393C40.6637 20.7438 41.2537 21.1426 41.9292 21.4355C42.6047 21.7285 43.3289 21.875 44.1021 21.875C44.867 21.875 45.5872 21.7285 46.2627 21.4355C46.9463 21.1426 47.5363 20.7438 48.0327 20.2393C48.5373 19.7347 48.936 19.1488 49.229 18.4814C49.522 17.806 49.6685 17.0858 49.6685 16.3208Z" fill="#3F51B5"/>
</g>
<defs>
<clipPath id="clip0">
<rect width="100" height="30" fill="white"/>
</clipPath>
</defs>
</svg>
